<?xml version="1.0" encoding="utf-8"?>
<!-- Generator: Adobe Illustrator 16.0.0, SVG Export Plug-In . SVG Version: 6.00 Build 0)  -->
<!DOCTYPE svg PUBLIC "-//W3C//DTD SVG 1.1//EN" "http://www.w3.org/Graphics/SVG/1.1/DTD/svg11.dtd">
<svg version="1.1" id="Capa_1" xmlns="http://www.w3.org/2000/svg" xmlns:xlink="http://www.w3.org/1999/xlink" x="0px" y="0px"
	 width="90px" height="90px" viewBox="0 0 90 90" enable-background="new 0 0 90 90" xml:space="preserve">
<path fill="#1D1D1D" d="M45,15c-8.1,0-9.2,0-12.4,0.2c-3.2,0.1-5.4,0.7-7.3,1.4c-2,0.8-3.6,1.8-5.3,3.5c-1.7,1.7-2.7,3.3-3.5,5.3
	c-0.7,1.9-1.3,4.1-1.4,7.3C15,35.8,15,36.9,15,45s0,9.2,0.2,12.4c0.1,3.2,0.7,5.4,1.4,7.3c0.8,2,1.8,3.6,3.5,5.3
	c1.7,1.7,3.3,2.7,5.3,3.5c1.9,0.7,4.1,1.2,7.3,1.4C35.8,75,36.9,75,45,75c8.1,0,9.2,0,12.4-0.2c3.2-0.1,5.4-0.7,7.3-1.4
	c2-0.8,3.6-1.8,5.3-3.5c1.7-1.7,2.7-3.3,3.5-5.3c0.7-1.9,1.2-4.1,1.4-7.3C75,54.2,75,53.1,75,45s0-9.2-0.2-12.4
	c-0.1-3.2-0.7-5.4-1.4-7.3c-0.8-2-1.8-3.6-3.5-5.3c-1.7-1.7-3.3-2.7-5.3-3.5c-1.9-0.7-4.1-1.2-7.3-1.4C54.2,15,53.1,15,45,15L45,15z
	 M42.3,20.4c0.8,0,1.7,0,2.7,0c8,0,9,0,12.1,0.2c2.9,0.1,4.5,0.6,5.6,1c1.4,0.5,2.4,1.2,3.4,2.2c1,1,1.7,2,2.2,3.4
	c0.4,1.1,0.9,2.6,1,5.6C69.6,36,69.6,37,69.6,45c0,8,0,9-0.2,12.1c-0.1,2.9-0.6,4.5-1,5.6c-0.5,1.4-1.2,2.4-2.2,3.4
	c-1,1-2,1.7-3.4,2.2c-1.1,0.4-2.6,0.9-5.6,1C54,69.5,53,69.6,45,69.6c-8,0-9,0-12.1-0.2c-2.9-0.1-4.5-0.6-5.6-1
	c-1.4-0.5-2.4-1.2-3.5-2.2c-1-1-1.7-2-2.2-3.4c-0.4-1.1-0.9-2.6-1-5.6c-0.1-3.2-0.2-4.1-0.2-12.1c0-8,0-9,0.2-12.1
	c0.1-2.9,0.6-4.5,1-5.6c0.5-1.4,1.2-2.4,2.2-3.4c1.1-1.1,2.1-1.7,3.5-2.2c1.1-0.4,2.6-0.9,5.6-1C35.6,20.4,36.7,20.4,42.3,20.4
	L42.3,20.4z M61,25.4c-2,0-3.6,1.6-3.6,3.6s1.6,3.6,3.6,3.6c2,0,3.6-1.6,3.6-3.6C64.6,27,63,25.4,61,25.4L61,25.4z M45,29.6
	c-8.5,0-15.4,6.9-15.4,15.4S36.5,60.4,45,60.4c8.5,0,15.4-6.9,15.4-15.4S53.5,29.6,45,29.6L45,29.6z M45,35c5.5,0,10,4.5,10,10
	c0,5.5-4.5,10-10,10c-5.5,0-10-4.5-10-10C35,39.5,39.5,35,45,35z"/>
</svg>
