<svg width="28" height="28" viewBox="0 0 28 28" fill="none" xmlns="http://www.w3.org/2000/svg">
<path d="M13.9172 0C6.22835 0 0 6.18565 0 13.8217C0 21.4578 6.22835 27.6435 13.9172 27.6435C21.6059 27.6435 27.8343 21.4578 27.8343 13.8217C27.8343 6.18565 21.5974 0 13.9172 0ZM20.8929 10.5796V12.4481C20.0081 12.4481 19.1404 12.2774 18.3242 11.9362C17.8002 11.7143 17.3105 11.4328 16.8638 11.0915L16.881 16.8506C16.8724 18.1474 16.3569 19.3675 15.4205 20.2804C14.656 21.0312 13.6938 21.5005 12.6457 21.654C12.3966 21.6882 12.1474 21.7052 11.8983 21.7052C10.7815 21.7052 9.71623 21.3469 8.84856 20.6814C8.68533 20.5534 8.5307 20.4169 8.37606 20.2719C7.36235 19.2736 6.8383 17.9256 6.92421 16.5093C6.99294 15.4257 7.42248 14.4019 8.1527 13.5914C9.11488 12.5249 10.455 11.9276 11.8897 11.9276C12.1389 11.9276 12.3966 11.9447 12.6371 11.9788V14.5981C12.4052 14.5213 12.156 14.4787 11.8983 14.4787C10.5839 14.4787 9.52724 15.5452 9.54442 16.842C9.55301 17.6782 10.0169 18.4034 10.6956 18.8044C11.0134 18.9921 11.3829 19.1115 11.7694 19.1286C12.0787 19.1456 12.3708 19.103 12.6371 19.0177C13.5735 18.7105 14.2522 17.8317 14.2522 16.8079V12.9515V5.92969H16.8466C16.8466 6.18565 16.8724 6.43307 16.9239 6.67197C17.1215 7.65314 17.6713 8.4978 18.4445 9.07797C19.1146 9.58136 19.9565 9.87997 20.8671 9.87997H20.8757L20.8929 10.5796Z" fill="black"/>
</svg>
