<?xml version="1.0" encoding="utf-8"?>
<!-- Generator: Adobe Illustrator 16.0.0, SVG Export Plug-In . SVG Version: 6.00 Build 0)  -->
<!DOCTYPE svg PUBLIC "-//W3C//DTD SVG 1.1//EN" "http://www.w3.org/Graphics/SVG/1.1/DTD/svg11.dtd">
<svg version="1.1" id="Capa_1" xmlns="http://www.w3.org/2000/svg" xmlns:xlink="http://www.w3.org/1999/xlink" x="0px" y="0px"
	 width="90px" height="90px" viewBox="0 0 90 90" enable-background="new 0 0 90 90" xml:space="preserve">
<path fill="#1D1D1D" d="M77,25.2c-2.4,1-4.9,1.7-7.5,2.1c2.7-1.6,4.8-4.2,5.8-7.3c-2.5,1.5-5.3,2.6-8.3,3.2
	c-2.4-2.6-5.8-4.1-9.6-4.1c-7.3,0-13.1,5.9-13.1,13.1c0,1,0.1,2,0.3,3c-10.9-0.5-20.6-5.8-27.1-13.7c-1.1,1.9-1.8,4.2-1.8,6.6
	c0,4.6,2.3,8.6,5.8,10.9c-2.2-0.1-4.2-0.7-5.9-1.6c0,0.1,0,0.1,0,0.2c0,6.4,4.5,11.7,10.5,12.9c-1.1,0.3-2.3,0.5-3.5,0.5
	c-0.8,0-1.7-0.1-2.5-0.2c1.7,5.2,6.5,9,12.3,9.1c-4.5,3.5-10.2,5.6-16.3,5.6c-1.1,0-2.1-0.1-3.1-0.2c5.8,3.7,12.7,5.9,20.1,5.9
	c24.2,0,37.4-20,37.4-37.3c0-0.6,0-1.1,0-1.7C73,30.1,75.2,27.8,77,25.2z"/>
</svg>
