<?xml version="1.0" encoding="utf-8"?>
<!-- Generator: Adobe Illustrator 16.0.0, SVG Export Plug-In . SVG Version: 6.00 Build 0)  -->
<!DOCTYPE svg PUBLIC "-//W3C//DTD SVG 1.1//EN" "http://www.w3.org/Graphics/SVG/1.1/DTD/svg11.dtd">
<svg version="1.1" id="Capa_1" xmlns="http://www.w3.org/2000/svg" xmlns:xlink="http://www.w3.org/1999/xlink" x="0px" y="0px"
	 width="90px" height="90px" viewBox="0 0 90 90" enable-background="new 0 0 90 90" xml:space="preserve">
<g id="Lozenge">
	<g>
		<path fill="#1D1D1D" d="M78.3,31.3c0,0-0.7-4.7-2.7-6.7c-2.6-2.7-5.5-2.7-6.8-2.9C59.3,21,45,21,45,21h0c0,0-14.3,0-23.8,0.7
			c-1.3,0.2-4.2,0.2-6.8,2.9c-2,2.1-2.7,6.7-2.7,6.7s-0.7,5.5-0.7,11v5.2c0,5.5,0.7,11,0.7,11s0.7,4.7,2.7,6.7
			c2.6,2.7,6,2.6,7.5,2.9c5.4,0.5,23.1,0.7,23.1,0.7s14.3,0,23.8-0.7c1.3-0.2,4.2-0.2,6.8-2.9c2-2.1,2.7-6.7,2.7-6.7S79,53,79,47.5
			v-5.2C79,36.8,78.3,31.3,78.3,31.3z M38,53.7l0-19.1l18.4,9.6L38,53.7z"/>
	</g>
</g>
</svg>
